<svg width="165" height="37" viewBox="0 0 165 37" fill="none" xmlns="http://www.w3.org/2000/svg">
<path d="M5.90851 18.1008L0 0.393494H6.10546L8.86277 8.85366L11.6201 0.393494H16.7408L19.695 8.85366L22.2554 0.393494H28.1639L22.4524 18.1008H17.3316L14.1804 9.4439L11.0292 18.1008H5.90851Z" fill="#0FB2EF"/>
<path d="M77.7955 0.393505L71.887 18.1008H77.9924L80.7497 9.64066L83.507 18.1008H88.6278L91.582 9.64066L94.1424 18.1008H100.051L94.3393 0.393505H89.2186L86.0674 9.05042L82.9162 0.393505H77.7955Z" fill="#F59121"/>
<path d="M29.3457 0.393494H35.2542V18.1008H29.3457L29.3457 0.393494Z" fill="#0FB2EF"/>
<path fill-rule="evenodd" clip-rule="evenodd" d="M70.7052 5.31219V0.393494L55.343 0.393494L55.343 0.3935H55.343V18.1008H61.2515L70.7052 18.1008V13.1821L61.2515 13.1821V11.2146H69.9174V6.88618L61.2515 6.88618V5.31219L70.7052 5.31219Z" fill="#0FB2EF"/>
<path fill-rule="evenodd" clip-rule="evenodd" d="M41.1626 0.393494H47.8654C51.3426 0.393494 54.1614 3.21228 54.1614 6.68943C54.1614 9.13266 52.7697 11.2508 50.7358 12.2945L54.5553 18.1008H47.859L44.5108 12.9854L44.5108 12.9854H43.1321V18.1008H37.2236V0.3935H41.1626V0.393494ZM43.1321 8.85363L43.1321 5.31217H46.4821C47.4601 5.31217 48.2529 6.10495 48.2529 7.0829C48.2529 8.06085 47.4601 8.85363 46.4821 8.85363H43.1321Z" fill="#0FB2EF"/>
<path fill-rule="evenodd" clip-rule="evenodd" d="M107.338 18.4943C112.777 18.4943 117.186 14.3542 117.186 9.24716C117.186 4.14009 112.777 0 107.338 0C101.899 0 97.4905 4.14009 97.4905 9.24716C97.4905 14.3542 101.899 18.4943 107.338 18.4943ZM110.883 9.24718C110.883 7.07396 109.296 5.31221 107.338 5.31221C105.38 5.31221 103.793 7.07396 103.793 9.24718C103.793 11.4204 105.38 13.1821 107.338 13.1821C109.296 13.1821 110.883 11.4204 110.883 9.24718Z" fill="#F59121"/>
<path fill-rule="evenodd" clip-rule="evenodd" d="M135.606 13.8878C133.969 16.6424 130.919 18.4943 127.427 18.4943C122.206 18.4943 117.973 14.3542 117.973 9.24716C117.973 4.14009 122.206 0 127.427 0C130.896 0 133.928 1.82756 135.573 4.55206L130.504 7.56318C129.958 6.23245 128.785 5.31221 127.427 5.31221C125.547 5.31221 124.024 7.07396 124.024 9.24718C124.024 11.4204 125.547 13.1821 127.427 13.1821C128.866 13.1821 130.097 12.1492 130.594 10.6894L135.606 13.8878Z" fill="#F59121"/>
<path fill-rule="evenodd" clip-rule="evenodd" d="M142.789 6.99407V0.393518H136.881V18.1008H142.789V14.4125L144.384 12.5819L148.107 18.1008H154.803L148.414 7.95453L155 0.393494H147.91L142.789 6.99407Z" fill="#F59121"/>
<path d="M79.8474 31.684C80.7294 32.566 82.0174 33.168 83.8094 33.168C86.3294 33.168 87.5474 31.88 87.5474 30.172C87.5474 28.1 85.5874 27.638 84.0474 27.288C82.9694 27.036 82.1854 26.84 82.1854 26.21C82.1854 25.65 82.6614 25.258 83.5574 25.258C84.4674 25.258 85.4754 25.58 86.2314 26.28L87.3374 24.824C86.4134 23.97 85.1814 23.522 83.6974 23.522C81.4994 23.522 80.1554 24.782 80.1554 26.336C80.1554 28.422 82.1154 28.842 83.6414 29.192C84.7194 29.444 85.5314 29.682 85.5314 30.382C85.5314 30.914 84.9994 31.432 83.9074 31.432C82.6194 31.432 81.5974 30.858 80.9394 30.172L79.8474 31.684ZM90.9615 33.168C91.7035 33.168 92.1795 32.972 92.4455 32.734L92.0675 31.39C91.9695 31.488 91.7175 31.586 91.4515 31.586C91.0595 31.586 90.8355 31.264 90.8355 30.844V27.792H92.2075V26.238H90.8355V24.39H89.0435V26.238H87.9235V27.792H89.0435V31.32C89.0435 32.524 89.7155 33.168 90.9615 33.168ZM97.988 33H99.766V26.238H97.988V30.816C97.68 31.208 97.134 31.586 96.448 31.586C95.692 31.586 95.202 31.278 95.202 30.34V26.238H93.424V31.04C93.424 32.356 94.124 33.168 95.608 33.168C96.714 33.168 97.526 32.664 97.988 32.146V33ZM106.179 33H107.971V23.662H106.179V27.106C105.647 26.42 104.891 26.07 104.093 26.07C102.371 26.07 101.097 27.414 101.097 29.626C101.097 31.88 102.385 33.168 104.093 33.168C104.905 33.168 105.647 32.804 106.179 32.146V33ZM106.179 30.816C105.871 31.264 105.241 31.586 104.639 31.586C103.631 31.586 102.931 30.788 102.931 29.626C102.931 28.45 103.631 27.652 104.639 27.652C105.241 27.652 105.871 27.974 106.179 28.422V30.816ZM110.617 25.244C111.205 25.244 111.681 24.768 111.681 24.18C111.681 23.592 111.205 23.116 110.617 23.116C110.043 23.116 109.553 23.592 109.553 24.18C109.553 24.768 110.043 25.244 110.617 25.244ZM109.735 33H111.513V26.238H109.735V33ZM116.412 33.168C118.652 33.168 119.996 31.544 119.996 29.612C119.996 27.694 118.652 26.07 116.412 26.07C114.186 26.07 112.842 27.694 112.842 29.612C112.842 31.544 114.186 33.168 116.412 33.168ZM116.412 31.586C115.306 31.586 114.69 30.676 114.69 29.612C114.69 28.562 115.306 27.652 116.412 27.652C117.518 27.652 118.148 28.562 118.148 29.612C118.148 30.676 117.518 31.586 116.412 31.586Z" fill="#ACBFE4"/>
<rect x="124" y="21" width="31" height="15" rx="4" fill="#F59121"/>
<path d="M127.924 32H131.544C132.814 32 133.484 31.2 133.484 30.2C133.484 29.36 132.914 28.67 132.204 28.56C132.834 28.43 133.354 27.87 133.354 27.03C133.354 26.14 132.704 25.33 131.434 25.33H127.924V32ZM129.344 28.01V26.54H131.124C131.604 26.54 131.904 26.86 131.904 27.27C131.904 27.7 131.604 28.01 131.124 28.01H129.344ZM129.344 30.79V29.22H131.174C131.734 29.22 132.034 29.58 132.034 30C132.034 30.48 131.714 30.79 131.174 30.79H129.344ZM134.555 32H139.275V30.77H135.975V29.22H139.205V28H135.975V26.55H139.275V25.33H134.555V32ZM141.925 32H143.355V26.58H145.295V25.33H139.975V26.58H141.925V32ZM150.23 32H151.78L149.21 25.33H147.43L144.85 32H146.41L146.83 30.85H149.81L150.23 32ZM148.32 26.56L149.42 29.62H147.21L148.32 26.56Z" fill="white"/>
</svg>
